<?xml version="1.0" encoding="utf-8"?>
<svg xmlns="http://www.w3.org/2000/svg" height="512pt" version="1.1" viewBox="0 0 512 512" width="512pt">

  <defs>
    <linearGradient id="left_grad" x1="0" y1="0" x2="0" y2="512" gradientUnits="userSpaceOnUse">
      <stop offset="0%" stop-color="#8DC9F3"/>
      <stop offset="100%" stop-color="#377DEA"/>
    </linearGradient>
  </defs>

<path d="M 0.00 0.00 L 512.00 0.00 L 512.00 512.00 L 0.00 512.00 L 0.00 0.00 Z" fill="transparent" opacity="1.00" stroke="transparent" stroke-width="0.25"/>
<path d="M 314.94 178.98 C 332.29 171.59 350.74 167.27 369.20 163.69 C 372.17 164.38 371.05 170.28 367.91 170.47 C 353.35 173.01 339.08 176.89 324.84 180.81 C 310.76 185.07 297.14 191.22 285.15 199.79 C 285.27 198.48 285.39 197.17 285.53 195.86 C 294.72 189.27 304.40 183.19 314.94 178.98 Z" fill="#4285F4" opacity="1.0" stroke="#4285F4" stroke-width="0.25"/><path d="M 197.06 178.98C 179.71 171.59 161.26 167.27 142.80 163.69C 139.83 164.38 140.95 170.28 144.09 170.47C 158.65 173.01 172.92 176.89 187.16 180.81C 201.24 185.07 214.86 191.22 226.85 199.79C 226.73 198.48 226.61 197.17 226.47 195.86C 217.28 189.27 207.60 183.19 197.06 178.98Z" fill="url(#left_grad)" stroke="url(#left_grad)" stroke-width="0.25" opacity="1.0" /><path d="M 327.62 184.47 C 347.27 178.49 367.57 174.76 388.00 172.73 C 389.50 172.64 390.83 173.53 392.24 173.96 C 389.43 176.18 386.18 178.10 384.29 181.23 C 383.75 184.39 384.30 187.63 383.71 190.78 C 382.07 193.93 379.11 196.16 376.48 198.46 C 374.24 200.46 371.02 199.91 368.27 200.27 C 368.12 202.43 367.97 204.60 367.83 206.77 C 366.95 207.60 366.07 208.42 365.21 209.25 C 365.02 211.40 364.84 213.55 364.66 215.70 C 362.19 215.89 359.73 216.08 357.27 216.28 C 357.09 218.71 356.91 221.13 356.73 223.56 C 355.25 223.84 353.77 224.12 352.29 224.40 C 352.11 226.85 351.94 229.30 351.77 231.75 C 349.25 231.89 346.73 232.02 344.22 232.17 C 344.06 234.64 343.90 237.11 343.74 239.59 C 342.23 239.85 340.72 240.11 339.22 240.37 C 339.05 242.83 338.89 245.29 338.72 247.76 C 336.24 247.93 333.76 248.10 331.28 248.28 C 331.10 250.63 330.92 252.99 330.71 255.35 C 325.30 256.24 322.49 261.24 318.69 264.55 C 316.75 265.00 314.72 264.95 312.82 265.55 C 310.79 268.81 308.31 271.82 304.36 272.70 C 304.12 274.84 303.89 276.99 303.64 279.13 C 301.56 280.38 299.58 281.77 297.68 283.28 C 294.56 283.01 292.02 284.62 290.45 287.24 C 290.81 287.78 291.53 288.87 291.89 289.41 C 290.97 290.36 290.06 291.31 289.15 292.27 C 288.02 290.87 287.87 287.00 285.41 288.25 C 284.62 291.49 285.74 295.53 283.05 298.04 C 281.18 299.81 279.98 302.06 279.44 304.58 C 274.36 304.00 269.25 303.63 264.16 304.19 C 263.79 309.53 264.34 314.91 263.55 320.22 C 262.46 314.90 263.34 309.46 262.91 304.09 C 262.21 304.11 260.81 304.15 260.11 304.17 C 259.47 314.74 260.07 325.35 259.71 335.94 C 259.36 342.13 260.87 348.52 258.79 354.52 C 258.27 320.67 258.75 286.79 258.62 252.93 C 258.53 241.51 261.12 229.48 268.68 220.58 C 273.52 213.54 280.09 207.91 287.12 203.13 C 299.33 194.48 313.30 188.60 327.62 184.47 Z" fill="#4285F4" opacity="1.0" stroke="#4285F4" stroke-width="0.25"/><path d="M 184.38 184.47C 164.73 178.49 144.43 174.76 124.00 172.73C 122.50 172.64 121.17 173.53 119.76 173.96C 122.57 176.18 125.82 178.10 127.71 181.23C 128.25 184.39 127.70 187.63 128.29 190.78C 129.93 193.93 132.89 196.16 135.52 198.46C 137.76 200.46 140.98 199.91 143.73 200.27C 143.88 202.43 144.03 204.60 144.17 206.77C 145.05 207.60 145.93 208.42 146.79 209.25C 146.98 211.40 147.16 213.55 147.34 215.70C 149.81 215.89 152.27 216.08 154.73 216.28C 154.91 218.71 155.09 221.13 155.27 223.56C 156.75 223.84 158.23 224.12 159.71 224.40C 159.89 226.85 160.06 229.30 160.23 231.75C 162.75 231.89 165.27 232.02 167.78 232.17C 167.94 234.64 168.10 237.11 168.26 239.59C 169.77 239.85 171.28 240.11 172.78 240.37C 172.95 242.83 173.11 245.29 173.28 247.76C 175.76 247.93 178.24 248.10 180.72 248.28C 180.90 250.63 181.08 252.99 181.29 255.35C 186.70 256.24 189.51 261.24 193.31 264.55C 195.25 265.00 197.28 264.95 199.18 265.55C 201.21 268.81 203.69 271.82 207.64 272.70C 207.88 274.84 208.11 276.99 208.36 279.13C 210.44 280.38 212.42 281.77 214.32 283.28C 217.44 283.01 219.98 284.62 221.55 287.24C 221.19 287.78 220.47 288.87 220.11 289.41C 221.03 290.36 221.94 291.31 222.85 292.27C 223.98 290.87 224.13 287.00 226.59 288.25C 227.38 291.49 226.26 295.53 228.95 298.04C 230.82 299.81 232.02 302.06 232.56 304.58C 237.64 304.00 242.75 303.63 247.84 304.19C 248.21 309.53 247.66 314.91 248.45 320.22C 249.54 314.90 248.66 309.46 249.09 304.09C 249.79 304.11 251.19 304.15 251.89 304.17C 252.53 314.74 251.93 325.35 252.29 335.94C 252.64 342.13 251.13 348.52 253.21 354.52C 253.73 320.67 253.25 286.79 253.38 252.93C 253.47 241.51 250.88 229.48 243.32 220.58C 238.48 213.54 231.91 207.91 224.88 203.13C 212.67 194.48 198.70 188.60 184.38 184.47Z" fill="url(#left_grad)" stroke="url(#left_grad)" stroke-width="0.25" opacity="1.0" /><path d="M 384.29 181.23 C 386.18 178.10 389.43 176.18 392.24 173.96 C 393.14 175.50 394.34 177.03 394.16 178.94 C 394.24 219.99 394.23 261.04 394.24 302.09 C 394.30 303.67 393.82 305.20 393.36 306.70 C 392.40 297.16 393.15 287.55 392.82 277.99 C 392.57 266.67 393.53 255.29 392.01 244.03 C 391.89 242.43 391.10 241.04 390.31 239.70 C 389.69 244.89 390.12 250.12 389.61 255.32 C 387.85 255.68 386.10 256.02 384.35 256.40 C 384.21 261.60 381.69 266.35 381.61 271.56 C 379.87 271.82 378.13 272.07 376.39 272.33 C 376.00 274.24 375.93 276.27 375.06 278.04 C 373.18 279.59 370.81 280.38 368.92 281.91 C 367.61 285.04 367.83 288.82 365.51 291.51 C 363.63 294.07 360.69 295.45 358.11 297.17 C 355.68 298.79 353.82 301.08 351.87 303.22 C 353.16 303.64 354.45 304.06 355.74 304.48 C 351.85 305.93 348.08 307.73 344.00 308.59 C 347.70 309.56 351.50 310.07 355.28 310.66 C 349.43 314.18 341.54 311.66 336.25 316.54 C 336.45 316.81 336.86 317.35 337.07 317.62 C 344.62 315.74 352.38 311.55 360.27 314.19 C 340.89 318.54 321.86 324.57 303.83 332.95 C 289.67 339.05 276.54 347.22 263.91 355.99 C 262.37 357.21 260.48 357.75 258.53 357.67 C 258.59 356.89 258.73 355.31 258.79 354.52 C 260.87 348.52 259.36 342.13 259.71 335.94 C 260.07 325.35 259.47 314.74 260.11 304.17 C 260.81 304.15 262.21 304.11 262.91 304.09 C 263.34 309.46 262.46 314.90 263.55 320.22 C 264.34 314.91 263.79 309.53 264.16 304.19 C 269.25 303.63 274.36 304.00 279.44 304.58 C 279.98 302.06 281.18 299.81 283.05 298.04 C 285.74 295.53 284.62 291.49 285.41 288.25 C 287.87 287.00 288.02 290.87 289.15 292.27 C 290.06 291.31 290.97 290.36 291.89 289.41 C 291.53 288.87 290.81 287.78 290.45 287.24 C 292.02 284.62 294.56 283.01 297.68 283.28 C 299.58 281.77 301.56 280.38 303.64 279.13 C 303.89 276.99 304.12 274.84 304.36 272.70 C 308.31 271.82 310.79 268.81 312.82 265.55 C 314.72 264.95 316.75 265.00 318.69 264.55 C 322.49 261.24 325.30 256.24 330.71 255.35 C 330.92 252.99 331.10 250.63 331.28 248.28 C 333.76 248.10 336.24 247.93 338.72 247.76 C 338.89 245.29 339.05 242.83 339.22 240.37 C 340.72 240.11 342.23 239.85 343.74 239.59 C 343.90 237.11 344.06 234.64 344.22 232.17 C 346.73 232.02 349.25 231.89 351.77 231.75 C 351.94 229.30 352.11 226.85 352.29 224.40 C 353.77 224.12 355.25 223.84 356.73 223.56 C 356.91 221.13 357.09 218.71 357.27 216.28 C 359.73 216.08 362.19 215.89 364.66 215.70 C 364.84 213.55 365.02 211.40 365.21 209.25 C 366.07 208.42 366.95 207.60 367.83 206.77 C 367.97 204.60 368.12 202.43 368.27 200.27 C 371.02 199.91 374.24 200.46 376.48 198.46 C 379.11 196.16 382.07 193.93 383.71 190.78 C 384.30 187.63 383.75 184.39 384.29 181.23 Z" fill="#4285F4" opacity="1.0" stroke="#4285F4" stroke-width="0.25"/><path d="M 127.71 181.23C 125.82 178.10 122.57 176.18 119.76 173.96C 118.86 175.50 117.66 177.03 117.84 178.94C 117.76 219.99 117.77 261.04 117.76 302.09C 117.70 303.67 118.18 305.20 118.64 306.70C 119.60 297.16 118.85 287.55 119.18 277.99C 119.43 266.67 118.47 255.29 119.99 244.03C 120.11 242.43 120.90 241.04 121.69 239.70C 122.31 244.89 121.88 250.12 122.39 255.32C 124.15 255.68 125.90 256.02 127.65 256.40C 127.79 261.60 130.31 266.35 130.39 271.56C 132.13 271.82 133.87 272.07 135.61 272.33C 136.00 274.24 136.07 276.27 136.94 278.04C 138.82 279.59 141.19 280.38 143.08 281.91C 144.39 285.04 144.17 288.82 146.49 291.51C 148.37 294.07 151.31 295.45 153.89 297.17C 156.32 298.79 158.18 301.08 160.13 303.22C 158.84 303.64 157.55 304.06 156.26 304.48C 160.15 305.93 163.92 307.73 168.00 308.59C 164.30 309.56 160.50 310.07 156.72 310.66C 162.57 314.18 170.46 311.66 175.75 316.54C 175.55 316.81 175.14 317.35 174.93 317.62C 167.38 315.74 159.62 311.55 151.73 314.19C 171.11 318.54 190.14 324.57 208.17 332.95C 222.33 339.05 235.46 347.22 248.09 355.99C 249.63 357.21 251.52 357.75 253.47 357.67C 253.41 356.89 253.27 355.31 253.21 354.52C 251.13 348.52 252.64 342.13 252.29 335.94C 251.93 325.35 252.53 314.74 251.89 304.17C 251.19 304.15 249.79 304.11 249.09 304.09C 248.66 309.46 249.54 314.90 248.45 320.22C 247.66 314.91 248.21 309.53 247.84 304.19C 242.75 303.63 237.64 304.00 232.56 304.58C 232.02 302.06 230.82 299.81 228.95 298.04C 226.26 295.53 227.38 291.49 226.59 288.25C 224.13 287.00 223.98 290.87 222.85 292.27C 221.94 291.31 221.03 290.36 220.11 289.41C 220.47 288.87 221.19 287.78 221.55 287.24C 219.98 284.62 217.44 283.01 214.32 283.28C 212.42 281.77 210.44 280.38 208.36 279.13C 208.11 276.99 207.88 274.84 207.64 272.70C 203.69 271.82 201.21 268.81 199.18 265.55C 197.28 264.95 195.25 265.00 193.31 264.55C 189.51 261.24 186.70 256.24 181.29 255.35C 181.08 252.99 180.90 250.63 180.72 248.28C 178.24 248.10 175.76 247.93 173.28 247.76C 173.11 245.29 172.95 242.83 172.78 240.37C 171.28 240.11 169.77 239.85 168.26 239.59C 168.10 237.11 167.94 234.64 167.78 232.17C 165.27 232.02 162.75 231.89 160.23 231.75C 160.06 229.30 159.89 226.85 159.71 224.40C 158.23 224.12 156.75 223.84 155.27 223.56C 155.09 221.13 154.91 218.71 154.73 216.28C 152.27 216.08 149.81 215.89 147.34 215.70C 147.16 213.55 146.98 211.40 146.79 209.25C 145.93 208.42 145.05 207.60 144.17 206.77C 144.03 204.60 143.88 202.43 143.73 200.27C 140.98 199.91 137.76 200.46 135.52 198.46C 132.89 196.16 129.93 193.93 128.29 190.78C 127.70 187.63 128.25 184.39 127.71 181.23Z" fill="url(#left_grad)" stroke="url(#left_grad)" stroke-width="0.25" opacity="1.0" /><path d="M 264.80 217.91 C 270.44 209.48 277.57 202.12 285.53 195.86 C 285.39 197.17 285.27 198.48 285.15 199.79 C 277.73 205.42 270.93 211.88 265.19 219.22 C 264.39 220.40 263.79 221.70 263.15 222.97 C 263.54 221.24 263.78 219.41 264.80 217.91 Z" fill="#4285F4" opacity="1.0" stroke="#4285F4" stroke-width="0.25"/><path d="M 247.20 217.91C 241.56 209.48 234.43 202.12 226.47 195.86C 226.61 197.17 226.73 198.48 226.85 199.79C 234.27 205.42 241.07 211.88 246.81 219.22C 247.61 220.40 248.21 221.70 248.85 222.97C 248.46 221.24 248.22 219.41 247.20 217.91Z" fill="url(#left_grad)" stroke="url(#left_grad)" stroke-width="0.25" opacity="1.0" /><path d="M 390.31 239.70 C 391.10 241.04 391.89 242.43 392.01 244.03 C 393.53 255.29 392.57 266.67 392.82 277.99 C 393.15 287.55 392.40 297.16 393.36 306.70 C 391.25 309.08 387.92 309.39 384.99 309.92 C 376.70 311.06 368.48 312.69 360.27 314.19 C 352.38 311.55 344.62 315.74 337.07 317.62 C 336.86 317.35 336.45 316.81 336.25 316.54 C 341.54 311.66 349.43 314.18 355.28 310.66 C 351.50 310.07 347.70 309.56 344.00 308.59 C 348.08 307.73 351.85 305.93 355.74 304.48 C 354.45 304.06 353.16 303.64 351.87 303.22 C 353.82 301.08 355.68 298.79 358.11 297.17 C 360.69 295.45 363.63 294.07 365.51 291.51 C 367.83 288.82 367.61 285.04 368.92 281.91 C 370.81 280.38 373.18 279.59 375.06 278.04 C 375.93 276.27 376.00 274.24 376.39 272.33 C 378.13 272.07 379.87 271.82 381.61 271.56 C 381.69 266.35 384.21 261.60 384.35 256.40 C 386.10 256.02 387.85 255.68 389.61 255.32 C 390.12 250.12 389.69 244.89 390.31 239.70 Z" fill="#4285F4" opacity="1.0" stroke="#4285F4" stroke-width="0.25"/><path d="M 121.69 239.70C 120.90 241.04 120.11 242.43 119.99 244.03C 118.47 255.29 119.43 266.67 119.18 277.99C 118.85 287.55 119.60 297.16 118.64 306.70C 120.75 309.08 124.08 309.39 127.01 309.92C 135.30 311.06 143.52 312.69 151.73 314.19C 159.62 311.55 167.38 315.74 174.93 317.62C 175.14 317.35 175.55 316.81 175.75 316.54C 170.46 311.66 162.57 314.18 156.72 310.66C 160.50 310.07 164.30 309.56 168.00 308.59C 163.92 307.73 160.15 305.93 156.26 304.48C 157.55 304.06 158.84 303.64 160.13 303.22C 158.18 301.08 156.32 298.79 153.89 297.17C 151.31 295.45 148.37 294.07 146.49 291.51C 144.17 288.82 144.39 285.04 143.08 281.91C 141.19 280.38 138.82 279.59 136.94 278.04C 136.07 276.27 136.00 274.24 135.61 272.33C 133.87 272.07 132.13 271.82 130.39 271.56C 130.31 266.35 127.79 261.60 127.65 256.40C 125.90 256.02 124.15 255.68 122.39 255.32C 121.88 250.12 122.31 244.89 121.69 239.70Z" fill="url(#left_grad)" stroke="url(#left_grad)" stroke-width="0.25" opacity="1.0" />
</svg>